<svg id="k-spring_logo-full-en" data-name="k-spring_logo-full-en" xmlns="http://www.w3.org/2000/svg" viewBox="0 0 270 72">
  <path d="M113.277,11.915h2.144l-1.135,4.5h-2.647Zm3.655,0h2.143l-1.134,4.5H115.3Zm5.215,0h6.987V13.9h-4.466V17h4.25v1.981h-4.25v5.51h-2.521Zm17.886,12.568h-2.287v-1.26h-.036a3.866,3.866,0,0,1-3.042,1.476c-2.2,0-3.152-1.548-3.152-3.636V15.21h2.413v4.951c0,1.135.018,2.665,1.567,2.665,1.746,0,2.124-1.889,2.124-3.079V15.21h2.413Zm4.031-7.507h-1.782V15.21h1.782V13.356l2.413-.774V15.21h2.143v1.766h-2.143V21.3c0,.792.216,1.53,1.134,1.53a2.136,2.136,0,0,0,1.1-.252l.072,1.909A6.307,6.307,0,0,1,147,24.7a2.727,2.727,0,0,1-2.942-2.493,2.759,2.759,0,0,1,.006-.514Zm15.43,7.507h-2.286v-1.26h-.036a3.868,3.868,0,0,1-3.043,1.476c-2.2,0-3.152-1.548-3.152-3.636V15.21h2.413v4.951c0,1.135.019,2.665,1.567,2.665,1.747,0,2.125-1.889,2.125-3.079V15.21H159.5Zm3.29-9.273h2.142v2.108h.037A2.84,2.84,0,0,1,167.5,15a2.655,2.655,0,0,1,.738.071V17.5a2.455,2.455,0,0,0-1.08-.2c-1.963,0-1.963,2.448-1.963,3.781v3.4h-2.413Zm15.25,8.752a6.378,6.378,0,0,1-3.187.738c-3.061,0-4.843-1.764-4.843-4.807,0-2.683,1.422-4.9,4.3-4.9,3.439,0,4.411,2.359,4.411,5.6h-6.41a2.426,2.426,0,0,0,2.5,2.35c.05,0,.1-.005.149-.009A6.265,6.265,0,0,0,178.031,22Zm-1.62-5.024c-.072-1.171-.613-2.179-1.963-2.179a2.1,2.1,0,0,0-2.144,2.056c0,.041,0,.082,0,.123Zm4.962,1.692V18.65h4.735v1.98ZM198.8,24.3a12.692,12.692,0,0,1-2.863.4c-4.068,0-6.9-2.035-6.9-6.284,0-4.3,2.629-6.716,6.9-6.716a8.355,8.355,0,0,1,2.846.522l-.181,2.125a5.2,5.2,0,0,0-2.719-.666c-2.592,0-4.212,1.98-4.212,4.555a4.139,4.139,0,0,0,3.78,4.471,3.944,3.944,0,0,0,.486.012A7.03,7.03,0,0,0,198.7,22.2Zm2.451-9.093H203.4v2.107h.036a2.844,2.844,0,0,1,2.539-2.323,2.7,2.7,0,0,1,.739.072V17.5a2.455,2.455,0,0,0-1.08-.2c-1.963,0-1.963,2.448-1.963,3.781v3.4h-2.413Zm15.251,8.751a6.361,6.361,0,0,1-3.188.738c-3.06,0-4.843-1.764-4.843-4.807,0-2.683,1.422-4.9,4.3-4.9,3.44,0,4.411,2.359,4.411,5.6h-6.409a2.424,2.424,0,0,0,2.494,2.351c.051,0,.1-.005.152-.01A6.248,6.248,0,0,0,216.5,22Zm-1.622-5.024c-.071-1.171-.612-2.179-1.961-2.179a2.1,2.1,0,0,0-2.144,2.055c0,.041,0,.082,0,.124Zm5.392-3.241A8.252,8.252,0,0,1,223.5,15c2.827,0,4,1.17,4,3.907v1.188c0,.937.017,1.638.036,2.322.018.7.054,1.351.107,2.072h-2.124a11.925,11.925,0,0,1-.108-1.386h-.036a3.312,3.312,0,0,1-2.862,1.6c-1.639,0-3.242-.991-3.242-2.754a2.726,2.726,0,0,1,1.585-2.648,7.334,7.334,0,0,1,3.115-.54H225.3c0-1.494-.667-2-2.089-2a4.852,4.852,0,0,0-2.864,1.008Zm2.823,7.241a2.05,2.05,0,0,0,1.693-.828,3.076,3.076,0,0,0,.5-1.91h-1.045c-1.08,0-2.683.181-2.683,1.6C221.572,22.593,222.238,22.937,223.1,22.937Zm8.28-5.96H229.6V15.21h1.784V13.356l2.412-.774V15.21h2.142v1.766H233.8V21.3c0,.792.216,1.53,1.134,1.53a2.139,2.139,0,0,0,1.1-.252l.071,1.909a6.307,6.307,0,0,1-1.782.216,2.725,2.725,0,0,1-2.94-2.493,2.759,2.759,0,0,1,.006-.514Zm7.1-5.762h2.413v2.3h-2.413Zm0,4h2.413v9.272h-2.413ZM248.472,15a4.642,4.642,0,0,1,4.862,4.915,4.852,4.852,0,0,1-9.7,0A4.639,4.639,0,0,1,247.98,15a4.466,4.466,0,0,1,.491,0Zm0,7.832c1.855,0,2.341-1.656,2.341-3.2,0-1.422-.756-2.755-2.341-2.755-1.566,0-2.322,1.369-2.322,2.755,0,1.522.485,3.2,2.321,3.2Zm7.578-7.616h2.287v1.261h.035A3.462,3.462,0,0,1,261.415,15c2.2,0,3.151,1.548,3.151,3.637v5.852h-2.413V19.536c0-1.134-.018-2.665-1.566-2.665-1.746,0-2.124,1.891-2.124,3.08v4.538h-2.414ZM125.389,32.08a12.528,12.528,0,0,0-2.321,7.17,13.049,13.049,0,0,0,2.321,7.172h-2.033A11.725,11.725,0,0,1,120.8,39.25a11.281,11.281,0,0,1,2.561-7.17Zm2.95.139h5.275l2.665,9.281h.036l2.791-9.281h5.077V46.181h-3.277l.055-10.723h-.036l-3.206,10.723H134.64l-3.06-10.723h-.036l.072,10.723h-3.277Zm19.227,0h3.35V46.181h-3.35Zm6.692,0h5.977c2.233,0,4.051,1.12,4.051,3.52,0,1.86-.792,3.1-2.412,3.52v.04c1.08.32,1.152,1.382,1.782,3.082l1.225,3.8h-3.494l-.72-2.521c-.684-2.4-1.116-3-2.359-3h-.7v5.521H154.26Zm3.348,5.8h.882c1.081,0,2.449-.04,2.449-1.62,0-1.3-1.171-1.54-2.449-1.54h-.882Zm13.833-5.8h4.1l4.843,13.963H176.71l-.937-2.981h-4.717l-.991,2.981h-3.4Zm2.053,2.88h-.036l-1.621,5.462h3.151Zm9.2-2.88h3.35V46.181h-3.35Zm6.5,14.2a13.183,13.183,0,0,0,2.321-7.171,12.652,12.652,0,0,0-2.321-7.171h2.017a11.373,11.373,0,0,1,2.577,7.171,11.824,11.824,0,0,1-2.577,7.171Zm8.535-14.808h2.629l-1.656,4.5h-2.125Zm3.656,0h2.628l-1.656,4.5H200.23ZM216.269,46a12.748,12.748,0,0,1-2.862.4c-4.069,0-6.9-2.034-6.9-6.284,0-4.3,2.629-6.716,6.9-6.716a8.273,8.273,0,0,1,2.845.522l-.18,2.124a5.181,5.181,0,0,0-2.719-.666c-2.593,0-4.214,1.981-4.214,4.556a4.141,4.141,0,0,0,3.782,4.471,4.381,4.381,0,0,0,.486.012,7.03,7.03,0,0,0,2.755-.522Zm6.269-9.308A4.643,4.643,0,0,1,227.4,41.1a4.691,4.691,0,0,1,0,.5,4.853,4.853,0,0,1-9.705,0,4.641,4.641,0,0,1,4.354-4.91,4.467,4.467,0,0,1,.491,0Zm0,7.833c1.854,0,2.341-1.658,2.341-3.2,0-1.423-.757-2.755-2.341-2.755-1.567,0-2.323,1.368-2.323,2.755,0,1.527.484,3.2,2.324,3.2Zm15.61,1.656h-2.286V44.92h-.036a3.86,3.86,0,0,1-3.043,1.477c-2.2,0-3.151-1.549-3.151-3.637V36.908h2.413v4.953c0,1.132.018,2.665,1.566,2.665,1.747,0,2.125-1.891,2.125-3.079V36.908h2.412Zm2.84-9.274h2.143v2.108h.036a2.84,2.84,0,0,1,2.539-2.323,2.618,2.618,0,0,1,.738.072v2.431a2.441,2.441,0,0,0-1.08-.2c-1.963,0-1.963,2.45-1.963,3.782v3.4h-2.412Zm13.056,1.946a5.915,5.915,0,0,0-2.161-.4c-.648,0-1.422.235-1.422,1.027,0,1.476,4.195.54,4.195,3.889,0,2.16-1.927,3.025-3.89,3.025a10.822,10.822,0,0,1-2.736-.4l.144-1.98a5.308,5.308,0,0,0,2.376.612c.613,0,1.584-.234,1.584-1.134,0-1.819-4.194-.576-4.194-3.926,0-2,1.746-2.88,3.637-2.88a11.047,11.047,0,0,1,2.629.342Zm10.289,6.805a6.382,6.382,0,0,1-3.188.739c-3.06,0-4.843-1.765-4.843-4.808,0-2.683,1.422-4.9,4.3-4.9,3.44,0,4.411,2.359,4.411,5.6H258.6a2.424,2.424,0,0,0,2.5,2.35c.05,0,.1-.005.151-.009a6.274,6.274,0,0,0,3.079-.936Zm-1.62-5.019c-.072-1.17-.613-2.179-1.962-2.179a2.1,2.1,0,0,0-2.144,2.055c0,.041,0,.082,0,.124ZM122.07,54.558h.792v2.727h.019l2.079-2.727h.945l-2.358,2.971,2.556,3.313h-1.026l-2.2-3.043h-.019v3.043h-.792Zm6.519,7.221c-.226.784-.55,1.061-1.126,1.061a2.11,2.11,0,0,1-.513-.054l.036-.684a.957.957,0,0,0,.414.091c.216,0,.378-.1.5-.577l.18-.7-1.45-4.664h.792L128.449,60h.018l.955-3.745h.755Zm6.252-1.927c0,.333.027.666.036.99h-.729l-.027-.685H134.1a1.177,1.177,0,0,1-1.161.748c-.8,0-1.341-.459-1.341-1.467V56.25h.756v2.962c0,.73.271,1.045.756,1.045.595,0,.973-.415.973-1.243V56.25h.756Zm1.635.1a2.082,2.082,0,0,0,1.08.342c.577,0,.873-.3.873-.647,0-.316-.162-.531-.585-.721l-.5-.225c-.658-.3-.9-.594-.9-1.179a1.352,1.352,0,0,1,1.366-1.337c.037,0,.074,0,.111,0a2.744,2.744,0,0,1,.971.162l-.035.647a2.253,2.253,0,0,0-.9-.2c-.5,0-.757.27-.757.63s.271.576.774.774l.271.108a1.246,1.246,0,0,1,.909,1.171,1.317,1.317,0,0,1-1.2,1.428,1.3,1.3,0,0,1-.279-.006,2.741,2.741,0,0,1-1.243-.27Zm4.228-5.86h.756v2.791h.017a1.248,1.248,0,0,1,1.126-.693c.8,0,1.341.459,1.341,1.467v3.187h-.756V57.881c0-.729-.27-1.045-.756-1.045-.594,0-.972.414-.972,1.243v2.764H140.7Zm8.3,5.762c0,.333.027.666.036.99h-.73l-.027-.685h-.018a1.177,1.177,0,0,1-1.161.748c-.8,0-1.341-.459-1.341-1.467V56.25h.755v2.962c0,.73.271,1.045.757,1.045.594,0,.972-.415.972-1.243V56.25H149Zm9.773-1.323a2.8,2.8,0,0,1-.252,1.4,2,2,0,0,1-3.438,0,2.8,2.8,0,0,1-.252-1.4V54.558h.792v4.087c0,.981.431,1.612,1.179,1.612s1.179-.631,1.179-1.612V54.558h.792Zm1.97-1.3c0-.333-.028-.666-.036-.99h.729l.028.685h.017a1.18,1.18,0,0,1,1.161-.747c.8,0,1.342.459,1.342,1.467v3.187h-.757V57.881c0-.729-.269-1.045-.756-1.045-.593,0-.972.414-.972,1.243v2.764h-.756Zm5.9-2.88v.9h-.829v-.9Zm-.793,1.89h.757v4.592h-.757Zm2.209,0h.828l1.008,3.835h.019l1.026-3.835h.792l-1.377,4.592h-.9Zm5.544,2.521c0,1.062.414,1.557,1.252,1.557a1.936,1.936,0,0,0,1.053-.378l.036.686a3.1,3.1,0,0,1-1.287.27c-1.216,0-1.846-.918-1.846-2.36s.63-2.358,1.774-2.358c1.035,0,1.611.828,1.611,2.178v.4Zm1.837-.576q0-1.433-.9-1.431c-.487,0-.918.359-.937,1.431Zm2.345-.955c0-.333-.028-.666-.036-.99h.728l.028.721h.018a1.231,1.231,0,0,1,1.305-.783v.753a1.327,1.327,0,0,0-.288-.028c-.585,0-1,.5-1,1.5V60.84h-.756Zm3.341,2.71a2.082,2.082,0,0,0,1.08.342c.576,0,.873-.3.873-.647,0-.316-.162-.53-.585-.721L182,58.7c-.657-.3-.9-.594-.9-1.179a1.352,1.352,0,0,1,1.366-1.337c.037,0,.074,0,.111,0a2.772,2.772,0,0,1,.972.162l-.035.647a2.253,2.253,0,0,0-.9-.2c-.5,0-.757.27-.757.63s.271.576.775.774l.27.108a1.246,1.246,0,0,1,.909,1.171,1.313,1.313,0,0,1-1.476,1.422,2.737,2.737,0,0,1-1.242-.27Zm5.04-5.59v.9h-.828v-.9Zm-.792,1.89h.756v4.592h-.756Zm4.672,4.537a2.046,2.046,0,0,1-.639.118c-.693,0-1.063-.279-1.063-1.089V56.863h-.729V56.25h.729v-.936l.756-.224v1.16h.946v.613H189.1v2.709c0,.523.136.72.478.72a1.072,1.072,0,0,0,.468-.116Zm3.108.992c-.226.783-.55,1.061-1.126,1.061a2.11,2.11,0,0,1-.513-.054l.036-.684a.957.957,0,0,0,.414.091c.216,0,.378-.1.5-.577l.18-.7L191.2,56.248h.8l1.026,3.745h.019L194,56.25h.756Zm8.829-6.312a2.131,2.131,0,0,0-1.071-.288.922.922,0,0,0-.98.858c0,.026,0,.052,0,.078,0,.406.162.659,1.063,1.181.972.557,1.3,1.106,1.3,1.826a1.686,1.686,0,0,1-1.579,1.787,1.725,1.725,0,0,1-.249,0,3.133,3.133,0,0,1-1.315-.27v-.815a2.624,2.624,0,0,0,1.2.405,1.023,1.023,0,0,0,1.113-.925c0-.022,0-.044,0-.066,0-.487-.126-.766-.972-1.279-1.135-.684-1.387-1.07-1.387-1.881a1.574,1.574,0,0,1,1.563-1.585c.061,0,.123,0,.184.009a3.2,3.2,0,0,1,1.134.207Zm2.1-.909H205.6a1.815,1.815,0,0,1,1.36.486,1.747,1.747,0,0,1,.5,1.3c0,1.225-.711,1.873-2.044,1.873h-.531v2.629h-.792Zm.792,3.007h.432c.963,0,1.315-.451,1.315-1.153,0-.864-.487-1.206-1.3-1.206h-.45Zm4.286-3.007h1.611a1.766,1.766,0,0,1,1.323.432,1.609,1.609,0,0,1,.469,1.2,1.434,1.434,0,0,1-1.242,1.5V57.7a.8.8,0,0,1,.683.613l.883,2.52h-.855l-.721-2.125a.884.884,0,0,0-1-.72h-.36v2.845h-.792Zm.792,2.791h.612a1.06,1.06,0,0,0,1.167-.941,1.161,1.161,0,0,0,0-.167c0-.7-.459-1.035-1.152-1.035h-.631Zm4.636-2.791h.792v6.284H214.6Zm2.936,0h.981l2.368,5.185h.018V54.558h.756v6.284h-.981L218.3,55.694h-.018v5.149h-.756Zm10.389,6.022a4.891,4.891,0,0,1-1.558.325c-1.989,0-2.826-1.512-2.826-3.214,0-1.962,1.143-3.2,2.781-3.2a3.419,3.419,0,0,1,1.477.279v.793a3.371,3.371,0,0,0-1.467-.388,2.08,2.08,0,0,0-1.979,2.175c0,.059.008.117.016.175,0,1.621.648,2.692,2.017,2.692a1.875,1.875,0,0,0,.783-.171V58.069h-1.054v-.683h1.81Zm4.138-3.483c0-.279-.026-.567-.036-.847h.73l.027.676h.018A1.3,1.3,0,0,1,234,56.184c.945,0,1.584.773,1.584,2.358S234.947,60.9,234,60.9a1.263,1.263,0,0,1-1.171-.694h-.018v2.579h-.757Zm1.765,3.2c.693,0,1.009-.594,1.009-1.746s-.316-1.746-1.009-1.746-1.008.595-1.008,1.746.318,1.745,1.011,1.745Zm3.409-3.057c0-.333-.027-.666-.036-.99h.73l.027.721h.017a1.234,1.234,0,0,1,1.306-.783v.753a1.327,1.327,0,0,0-.288-.028c-.585,0-1,.5-1,1.5V60.84h-.756Zm5.039-1.052c1.216,0,1.846.918,1.846,2.358s-.63,2.36-1.846,2.36-1.844-.918-1.844-2.36.629-2.354,1.844-2.354Zm0,4.1c.721,0,1.054-.594,1.054-1.746s-.333-1.746-1.054-1.746-1.052.595-1.052,1.746.333,1.754,1.052,1.754Zm6.807.748a1.764,1.764,0,0,1-1.716,1.811,1.7,1.7,0,0,1-.247-.011,4.341,4.341,0,0,1-1.341-.278l.035-.766a2.53,2.53,0,0,0,1.261.4,1.173,1.173,0,0,0,1.293-1.041,1.159,1.159,0,0,0-.006-.3v-.722h-.017a1.342,1.342,0,0,1-1.206.776c-.946,0-1.585-.776-1.585-2.359s.639-2.359,1.666-2.359a1.332,1.332,0,0,1,1.125.728h.017l.028-.666h.729c-.009.271-.036.56-.036.838Zm-1.765-.748c.694,0,1.009-.594,1.009-1.746s-.315-1.746-1.009-1.746-1.008.595-1.008,1.746.315,1.754,1.008,1.754Zm3.575-3.048c0-.333-.027-.666-.036-.99h.729l.027.721h.019a1.23,1.23,0,0,1,1.3-.783v.753a1.327,1.327,0,0,0-.288-.028c-.585,0-1,.5-1,1.5V60.84h-.756Zm3.551-.673a2.425,2.425,0,0,1,1.3-.378,1.741,1.741,0,0,1,1.225.431,1.408,1.408,0,0,1,.4,1.126v2.4a6.837,6.837,0,0,0,.036.7h-.684l-.045-.621h-.018a1.389,1.389,0,0,1-1.288.684,1.225,1.225,0,0,1-1.323-1.117,1.193,1.193,0,0,1,0-.207c0-.891.585-1.548,2.161-1.548h.441v-.208a1.118,1.118,0,0,0-.171-.737.93.93,0,0,0-.765-.288,1.624,1.624,0,0,0-1.18.477Zm2.2,2.025a4.5,4.5,0,0,0-.532-.019c-.89,0-1.313.424-1.313.956a.713.713,0,0,0,.617.8.814.814,0,0,0,.156,0,1.087,1.087,0,0,0,1.075-1.1c0-.022,0-.044,0-.065Zm2.521-1.352c0-.333-.027-.666-.036-.99h.729l.028.685h.017a3.215,3.215,0,0,0,3.331-.747c.792,0,1.332.459,1.332,1.467v3.187h-.76V57.692c0-.585-.252-.856-.7-.856-.558,0-.864.343-.864,1.171v2.836h-.756V57.692c0-.585-.253-.856-.7-.856-.558,0-.864.343-.864,1.171v2.836h-.756Z" style="fill: #231815"></path>
  <path d="M54.051,39.45a4.89,4.89,0,1,1,0-6.915A4.889,4.889,0,0,1,54.051,39.45ZM52.668,16.631a2.934,2.934,0,1,0,0,4.149A2.935,2.935,0,0,0,52.668,16.631Zm8.643,8.644a2.933,2.933,0,1,0,0,4.149A2.932,2.932,0,0,0,61.311,25.275Zm8.644,8.643a2.934,2.934,0,1,0,0,4.149A2.933,2.933,0,0,0,69.955,33.918ZM51.976,2.8a1.956,1.956,0,1,0,0,2.766A1.954,1.954,0,0,0,51.976,2.8Zm15.9,15.9a1.956,1.956,0,1,0,0,2.766A1.954,1.954,0,0,0,67.88,18.706Zm15.9,15.9a1.955,1.955,0,1,0,0,2.765A1.954,1.954,0,0,0,83.784,34.61Zm-15.9,15.9a1.956,1.956,0,1,0,0,2.766A1.956,1.956,0,0,0,67.88,50.513Zm-15.9,15.9a1.956,1.956,0,1,0,0,2.766A1.956,1.956,0,0,0,51.976,66.417Zm-15.9-15.9a1.956,1.956,0,1,0,0,2.766A1.957,1.957,0,0,0,36.072,50.513Zm-15.9-15.9a1.956,1.956,0,1,0,0,2.765A1.956,1.956,0,0,0,20.168,34.61Zm15.9-15.9a1.956,1.956,0,1,0,0,2.766A1.956,1.956,0,0,0,36.072,18.706Zm61.542,15.9a1.956,1.956,0,1,0,0,2.765A1.956,1.956,0,0,0,97.614,34.61Zm-91.275,0a1.956,1.956,0,1,0,0,2.765A1.956,1.956,0,0,0,6.339,34.61Zm54.972,7.952a2.933,2.933,0,1,0,0,4.148A2.932,2.932,0,0,0,61.311,42.562Zm-8.643,8.643a2.934,2.934,0,1,0,0,4.149A2.933,2.933,0,0,0,52.668,51.205Zm-8.644-8.643a2.933,2.933,0,1,0,0,4.148A2.932,2.932,0,0,0,44.024,42.562Zm-8.643-8.644a2.934,2.934,0,1,0,0,4.149A2.933,2.933,0,0,0,35.381,33.918Zm8.643-8.643a2.933,2.933,0,1,0,0,4.149A2.932,2.932,0,0,0,44.024,25.275Z" style="fill: #1e2dff"></path>
</svg>